<mxfile host="Electron" agent="Mozilla/5.0 (Macintosh; Intel Mac OS X 10_15_7) AppleWebKit/537.36 (KHTML, like Gecko) draw.io/24.7.8 Chrome/128.0.6613.36 Electron/32.0.1 Safari/537.36" version="24.7.8">
  <diagram name="Page-1" id="K-6_-xR0v2ObGu6qYd1j">
    <mxGraphModel dx="1804" dy="727" grid="1" gridSize="10" guides="1" tooltips="1" connect="1" arrows="1" fold="1" page="1" pageScale="1" pageWidth="850" pageHeight="1100" math="0" shadow="0">
      <root>
        <mxCell id="0" />
        <mxCell id="1" parent="0" />
        <mxCell id="ha-RQ1IIF9EmfUS-NR2r-15" style="edgeStyle=orthogonalEdgeStyle;rounded=0;orthogonalLoop=1;jettySize=auto;html=1;exitX=0;exitY=0.5;exitDx=0;exitDy=0;entryX=0.25;entryY=1;entryDx=0;entryDy=0;startArrow=ERmandOne;startFill=0;endArrow=ERzeroToMany;endFill=0;endSize=12;startSize=12;" parent="1" source="ha-RQ1IIF9EmfUS-NR2r-1" target="ha-RQ1IIF9EmfUS-NR2r-11" edge="1">
          <mxGeometry relative="1" as="geometry" />
        </mxCell>
        <mxCell id="ha-RQ1IIF9EmfUS-NR2r-16" value="&lt;font style=&quot;font-size: 12px;&quot;&gt;Bought By&lt;/font&gt;" style="edgeLabel;html=1;align=center;verticalAlign=middle;resizable=0;points=[];" parent="ha-RQ1IIF9EmfUS-NR2r-15" vertex="1" connectable="0">
          <mxGeometry x="0.0667" y="-2" relative="1" as="geometry">
            <mxPoint as="offset" />
          </mxGeometry>
        </mxCell>
        <mxCell id="ha-RQ1IIF9EmfUS-NR2r-1" value="&lt;b&gt;Client&lt;/b&gt;" style="swimlane;childLayout=stackLayout;horizontal=1;startSize=50;horizontalStack=0;rounded=1;fontSize=14;fontStyle=0;strokeWidth=2;resizeParent=0;resizeLast=1;shadow=0;dashed=0;align=center;arcSize=4;whiteSpace=wrap;html=1;" parent="1" vertex="1">
          <mxGeometry x="345" y="520" width="160" height="120" as="geometry" />
        </mxCell>
        <mxCell id="ha-RQ1IIF9EmfUS-NR2r-2" value="+ email [RU]&lt;div&gt;+ phone number [RU]&lt;/div&gt;&lt;div&gt;+ first name [RC]&lt;/div&gt;&lt;div&gt;+ last name [RC]&lt;/div&gt;" style="align=left;strokeColor=none;fillColor=none;spacingLeft=4;fontSize=12;verticalAlign=top;resizable=0;rotatable=0;part=1;html=1;" parent="ha-RQ1IIF9EmfUS-NR2r-1" vertex="1">
          <mxGeometry y="50" width="160" height="70" as="geometry" />
        </mxCell>
        <mxCell id="ha-RQ1IIF9EmfUS-NR2r-21" style="edgeStyle=orthogonalEdgeStyle;rounded=0;orthogonalLoop=1;jettySize=auto;html=1;exitX=0;exitY=0.25;exitDx=0;exitDy=0;entryX=1;entryY=0.25;entryDx=0;entryDy=0;endArrow=ERzeroToMany;endFill=0;startArrow=ERmandOne;startFill=0;endSize=12;startSize=12;" parent="1" source="ha-RQ1IIF9EmfUS-NR2r-3" target="ha-RQ1IIF9EmfUS-NR2r-11" edge="1">
          <mxGeometry relative="1" as="geometry" />
        </mxCell>
        <mxCell id="ha-RQ1IIF9EmfUS-NR2r-22" value="&lt;font style=&quot;font-size: 12px;&quot;&gt;Sold By&lt;/font&gt;" style="edgeLabel;html=1;align=center;verticalAlign=middle;resizable=0;points=[];" parent="ha-RQ1IIF9EmfUS-NR2r-21" vertex="1" connectable="0">
          <mxGeometry x="0.0293" y="-1" relative="1" as="geometry">
            <mxPoint as="offset" />
          </mxGeometry>
        </mxCell>
        <mxCell id="ha-RQ1IIF9EmfUS-NR2r-23" style="edgeStyle=orthogonalEdgeStyle;rounded=0;orthogonalLoop=1;jettySize=auto;html=1;exitX=1;exitY=0.25;exitDx=0;exitDy=0;startArrow=ERmandOne;startFill=0;endArrow=ERzeroToMany;endFill=0;endSize=12;startSize=12;entryX=0.019;entryY=0.15;entryDx=0;entryDy=0;entryPerimeter=0;" parent="1" source="ha-RQ1IIF9EmfUS-NR2r-3" target="ha-RQ1IIF9EmfUS-NR2r-13" edge="1">
          <mxGeometry relative="1" as="geometry">
            <mxPoint x="690" y="350" as="targetPoint" />
          </mxGeometry>
        </mxCell>
        <mxCell id="ha-RQ1IIF9EmfUS-NR2r-24" value="&lt;font style=&quot;font-size: 12px;&quot;&gt;Appointment By&lt;/font&gt;" style="edgeLabel;html=1;align=center;verticalAlign=middle;resizable=0;points=[];" parent="ha-RQ1IIF9EmfUS-NR2r-23" vertex="1" connectable="0">
          <mxGeometry x="0.021" y="2" relative="1" as="geometry">
            <mxPoint y="1" as="offset" />
          </mxGeometry>
        </mxCell>
        <mxCell id="ha-RQ1IIF9EmfUS-NR2r-3" value="&lt;b&gt;Agent&lt;/b&gt;" style="swimlane;childLayout=stackLayout;horizontal=1;startSize=50;horizontalStack=0;rounded=1;fontSize=14;fontStyle=0;strokeWidth=2;resizeParent=0;resizeLast=1;shadow=0;dashed=0;align=center;arcSize=4;whiteSpace=wrap;html=1;" parent="1" vertex="1">
          <mxGeometry x="345" y="320" width="160" height="150" as="geometry" />
        </mxCell>
        <mxCell id="ha-RQ1IIF9EmfUS-NR2r-4" value="+ email [RU]&lt;div&gt;+ phone number [RU]&lt;/div&gt;&lt;div&gt;+ first name [RC]&lt;/div&gt;&lt;div&gt;+ last name [RC]&lt;/div&gt;&lt;div&gt;+ certifications [M]&lt;/div&gt;" style="align=left;strokeColor=none;fillColor=none;spacingLeft=4;fontSize=12;verticalAlign=top;resizable=0;rotatable=0;part=1;html=1;" parent="ha-RQ1IIF9EmfUS-NR2r-3" vertex="1">
          <mxGeometry y="50" width="160" height="100" as="geometry" />
        </mxCell>
        <mxCell id="ha-RQ1IIF9EmfUS-NR2r-8" value="&lt;b&gt;Property&lt;/b&gt;" style="swimlane;childLayout=stackLayout;horizontal=1;startSize=50;horizontalStack=0;rounded=1;fontSize=14;fontStyle=0;strokeWidth=2;resizeParent=0;resizeLast=1;shadow=0;dashed=0;align=center;arcSize=4;whiteSpace=wrap;html=1;" parent="1" vertex="1">
          <mxGeometry x="160" y="10" width="160" height="230" as="geometry" />
        </mxCell>
        <mxCell id="ha-RQ1IIF9EmfUS-NR2r-9" value="+ street address [RU]&lt;div&gt;+ city [RC]&lt;/div&gt;&lt;div&gt;+ state [RC]&lt;/div&gt;&lt;div&gt;+ zipcode [RC]&lt;/div&gt;&lt;div&gt;+ price [R]&lt;/div&gt;&lt;div&gt;+ type [M]&lt;/div&gt;&lt;div&gt;+ square footage [R]&lt;/div&gt;&lt;div&gt;+ bedrooms&amp;nbsp;&lt;/div&gt;&lt;div&gt;+ bathrooms&lt;/div&gt;&lt;div&gt;+ date listed [R]&lt;/div&gt;&lt;div&gt;+ status [M]&amp;nbsp;&lt;/div&gt;" style="align=left;strokeColor=none;fillColor=none;spacingLeft=4;fontSize=12;verticalAlign=top;resizable=0;rotatable=0;part=1;html=1;" parent="ha-RQ1IIF9EmfUS-NR2r-8" vertex="1">
          <mxGeometry y="50" width="160" height="180" as="geometry" />
        </mxCell>
        <mxCell id="ha-RQ1IIF9EmfUS-NR2r-10" value="&lt;b&gt;Sale&lt;/b&gt;" style="swimlane;childLayout=stackLayout;horizontal=1;startSize=50;horizontalStack=0;rounded=1;fontSize=14;fontStyle=0;strokeWidth=2;resizeParent=0;resizeLast=1;shadow=0;dashed=0;align=center;arcSize=4;whiteSpace=wrap;html=1;" parent="1" vertex="1">
          <mxGeometry y="320" width="160" height="120" as="geometry" />
        </mxCell>
        <mxCell id="ha-RQ1IIF9EmfUS-NR2r-11" value="+ sale price [R]&lt;div&gt;+ date of sale&lt;/div&gt;" style="align=left;strokeColor=none;fillColor=none;spacingLeft=4;fontSize=12;verticalAlign=top;resizable=0;rotatable=0;part=1;html=1;" parent="ha-RQ1IIF9EmfUS-NR2r-10" vertex="1">
          <mxGeometry y="50" width="160" height="70" as="geometry" />
        </mxCell>
        <mxCell id="ha-RQ1IIF9EmfUS-NR2r-12" value="&lt;b&gt;Appointment&lt;/b&gt;" style="swimlane;childLayout=stackLayout;horizontal=1;startSize=50;horizontalStack=0;rounded=1;fontSize=14;fontStyle=0;strokeWidth=2;resizeParent=0;resizeLast=1;shadow=0;dashed=0;align=center;arcSize=4;whiteSpace=wrap;html=1;" parent="1" vertex="1">
          <mxGeometry x="690" y="320" width="160" height="120" as="geometry" />
        </mxCell>
        <mxCell id="ha-RQ1IIF9EmfUS-NR2r-13" value="+ appointment date&amp;nbsp;&lt;div&gt;+ appointment time&amp;nbsp;&lt;/div&gt;&lt;div&gt;+ notes&lt;/div&gt;" style="align=left;strokeColor=none;fillColor=none;spacingLeft=4;fontSize=12;verticalAlign=top;resizable=0;rotatable=0;part=1;html=1;" parent="ha-RQ1IIF9EmfUS-NR2r-12" vertex="1">
          <mxGeometry y="50" width="160" height="70" as="geometry" />
        </mxCell>
        <mxCell id="ha-RQ1IIF9EmfUS-NR2r-17" style="edgeStyle=orthogonalEdgeStyle;rounded=0;orthogonalLoop=1;jettySize=auto;html=1;exitX=0;exitY=0.5;exitDx=0;exitDy=0;entryX=0.25;entryY=0;entryDx=0;entryDy=0;startArrow=ERmandOne;startFill=0;endArrow=ERmandOne;endFill=0;endSize=12;startSize=12;" parent="1" source="ha-RQ1IIF9EmfUS-NR2r-9" target="ha-RQ1IIF9EmfUS-NR2r-10" edge="1">
          <mxGeometry relative="1" as="geometry" />
        </mxCell>
        <mxCell id="ha-RQ1IIF9EmfUS-NR2r-19" value="&lt;font style=&quot;font-size: 12px;&quot;&gt;Property Sold&lt;/font&gt;" style="edgeLabel;html=1;align=center;verticalAlign=middle;resizable=0;points=[];" parent="ha-RQ1IIF9EmfUS-NR2r-17" vertex="1" connectable="0">
          <mxGeometry x="-0.0765" y="3" relative="1" as="geometry">
            <mxPoint as="offset" />
          </mxGeometry>
        </mxCell>
        <mxCell id="ha-RQ1IIF9EmfUS-NR2r-18" style="edgeStyle=orthogonalEdgeStyle;rounded=0;orthogonalLoop=1;jettySize=auto;html=1;exitX=0.988;exitY=0.135;exitDx=0;exitDy=0;entryX=0.75;entryY=0;entryDx=0;entryDy=0;startArrow=ERmandOne;startFill=0;endArrow=ERmandOne;endFill=0;endSize=12;startSize=12;exitPerimeter=0;" parent="1" source="ha-RQ1IIF9EmfUS-NR2r-8" target="ha-RQ1IIF9EmfUS-NR2r-12" edge="1">
          <mxGeometry relative="1" as="geometry" />
        </mxCell>
        <mxCell id="ha-RQ1IIF9EmfUS-NR2r-20" value="&lt;font style=&quot;font-size: 12px;&quot;&gt;Appointment At&lt;/font&gt;" style="edgeLabel;html=1;align=center;verticalAlign=middle;resizable=0;points=[];" parent="ha-RQ1IIF9EmfUS-NR2r-18" vertex="1" connectable="0">
          <mxGeometry x="-0.2658" y="-1" relative="1" as="geometry">
            <mxPoint as="offset" />
          </mxGeometry>
        </mxCell>
        <mxCell id="ha-RQ1IIF9EmfUS-NR2r-26" style="edgeStyle=orthogonalEdgeStyle;rounded=0;orthogonalLoop=1;jettySize=auto;html=1;exitX=1;exitY=0.25;exitDx=0;exitDy=0;entryX=0.75;entryY=1;entryDx=0;entryDy=0;startArrow=ERmandOne;startFill=0;endArrow=ERzeroToMany;endFill=0;endSize=12;startSize=12;" parent="1" source="ha-RQ1IIF9EmfUS-NR2r-2" target="ha-RQ1IIF9EmfUS-NR2r-13" edge="1">
          <mxGeometry relative="1" as="geometry" />
        </mxCell>
        <mxCell id="ha-RQ1IIF9EmfUS-NR2r-27" value="&lt;font style=&quot;font-size: 12px;&quot;&gt;Appointment For&lt;/font&gt;" style="edgeLabel;html=1;align=center;verticalAlign=middle;resizable=0;points=[];" parent="ha-RQ1IIF9EmfUS-NR2r-26" vertex="1" connectable="0">
          <mxGeometry x="-0.1293" y="-4" relative="1" as="geometry">
            <mxPoint as="offset" />
          </mxGeometry>
        </mxCell>
        <mxCell id="8OvES9UqH-KEJQZNUYOS-1" value="&lt;b&gt;Office&lt;/b&gt;" style="swimlane;childLayout=stackLayout;horizontal=1;startSize=50;horizontalStack=0;rounded=1;fontSize=14;fontStyle=0;strokeWidth=2;resizeParent=0;resizeLast=1;shadow=0;dashed=0;align=center;arcSize=4;whiteSpace=wrap;html=1;" vertex="1" parent="1">
          <mxGeometry x="505" y="100" width="160" height="120" as="geometry" />
        </mxCell>
        <mxCell id="8OvES9UqH-KEJQZNUYOS-2" value="+ street address [RU]&lt;div&gt;&lt;div&gt;+ city [RC]&lt;/div&gt;&lt;div&gt;+ state [RC]&lt;/div&gt;&lt;div&gt;+ zipcode [RC]&lt;/div&gt;&lt;/div&gt;" style="align=left;strokeColor=none;fillColor=none;spacingLeft=4;fontSize=12;verticalAlign=top;resizable=0;rotatable=0;part=1;html=1;" vertex="1" parent="8OvES9UqH-KEJQZNUYOS-1">
          <mxGeometry y="50" width="160" height="70" as="geometry" />
        </mxCell>
        <mxCell id="8OvES9UqH-KEJQZNUYOS-3" style="edgeStyle=orthogonalEdgeStyle;rounded=0;orthogonalLoop=1;jettySize=auto;html=1;entryX=0.5;entryY=0;entryDx=0;entryDy=0;endArrow=ERzeroToMany;endFill=0;startArrow=ERmandOne;startFill=0;endSize=12;startSize=12;" edge="1" parent="1" source="8OvES9UqH-KEJQZNUYOS-2" target="ha-RQ1IIF9EmfUS-NR2r-3">
          <mxGeometry relative="1" as="geometry" />
        </mxCell>
        <mxCell id="8OvES9UqH-KEJQZNUYOS-4" value="&lt;font style=&quot;font-size: 12px;&quot;&gt;Works at&lt;/font&gt;" style="edgeLabel;html=1;align=center;verticalAlign=middle;resizable=0;points=[];" vertex="1" connectable="0" parent="8OvES9UqH-KEJQZNUYOS-3">
          <mxGeometry x="-0.0538" y="-1" relative="1" as="geometry">
            <mxPoint as="offset" />
          </mxGeometry>
        </mxCell>
      </root>
    </mxGraphModel>
  </diagram>
</mxfile>
